<svg width="131" height="31" viewBox="0 0 131 31" fill="none" xmlns="http://www.w3.org/2000/svg">
<path d="M100.373 21.0007L101.522 19.2967C101.925 19.6996 102.351 19.9968 102.8 20.1883C103.256 20.3732 103.781 20.4657 104.375 20.4657C104.805 20.4657 105.141 20.3765 105.386 20.1982C105.637 20.0199 105.762 19.7854 105.762 19.4948C105.762 19.2571 105.62 19.0623 105.336 18.9104C105.059 18.7518 104.547 18.5438 103.801 18.2862C103.438 18.1607 103.12 18.0386 102.85 17.9197C102.586 17.8008 102.315 17.6489 102.037 17.464C101.767 17.2791 101.542 17.0809 101.364 16.8696C101.192 16.6516 101.05 16.3875 100.938 16.077C100.832 15.7666 100.779 15.4232 100.779 15.0468C100.779 14.241 101.106 13.574 101.76 13.0456C102.42 12.5106 103.256 12.2432 104.266 12.2432C105.574 12.2432 106.743 12.6559 107.773 13.4815L106.634 15.2647C106.251 14.9081 105.842 14.6439 105.406 14.4722C104.976 14.2938 104.557 14.2047 104.147 14.2047C103.883 14.2047 103.636 14.2773 103.404 14.4226C103.18 14.5679 103.068 14.7793 103.068 15.0567C103.068 15.2878 103.196 15.4959 103.454 15.6808C103.718 15.8591 104.114 16.0539 104.643 16.2653C104.735 16.3049 104.874 16.361 105.059 16.4337C105.402 16.5658 105.657 16.6648 105.822 16.7309C105.987 16.7969 106.198 16.8927 106.456 17.0182C106.72 17.1437 106.911 17.2526 107.03 17.3451C107.156 17.4376 107.298 17.5597 107.456 17.7116C107.621 17.8635 107.737 18.0188 107.803 18.1773C107.876 18.3358 107.938 18.524 107.991 18.7419C108.044 18.9533 108.071 19.1877 108.071 19.4453C108.071 19.868 107.995 20.261 107.843 20.6242C107.691 20.9808 107.466 21.2979 107.169 21.5752C106.872 21.846 106.485 22.0607 106.01 22.2192C105.534 22.3711 104.99 22.447 104.375 22.447C102.803 22.447 101.469 21.9649 100.373 21.0007Z" fill="black"/>
<path d="M89.2285 17.3352C89.2285 16.5889 89.3507 15.8987 89.5951 15.2647C89.8394 14.6307 90.1763 14.0924 90.6055 13.6499C91.0348 13.2074 91.5467 12.864 92.1411 12.6196C92.7355 12.3686 93.3728 12.2432 94.0531 12.2432C95.0107 12.2432 95.8561 12.4578 96.5892 12.8871C97.3223 13.3164 97.8836 13.9075 98.2733 14.6604C98.663 15.4133 98.8578 16.2686 98.8578 17.2262C98.8578 17.5895 98.838 17.89 98.7984 18.1277H91.5863C91.7316 18.8278 92.0552 19.3793 92.5572 19.7821C93.0657 20.185 93.6832 20.3864 94.4097 20.3864C95.4334 20.3864 96.2556 19.9968 96.8765 19.2175L98.4615 20.5747C98.0124 21.1493 97.4345 21.605 96.7279 21.9418C96.0278 22.2786 95.2154 22.447 94.2908 22.447C93.3332 22.447 92.4713 22.239 91.7052 21.8229C90.9391 21.4068 90.3348 20.8091 89.8923 20.0298C89.4498 19.2439 89.2285 18.3457 89.2285 17.3352ZM91.6259 16.295H96.5793C96.434 15.6808 96.1533 15.1954 95.7372 14.8387C95.3277 14.4821 94.806 14.3038 94.1719 14.3038C93.5445 14.3038 93.003 14.4788 92.5473 14.8288C92.0915 15.1722 91.7844 15.661 91.6259 16.295Z" fill="black"/>
<path d="M84.4326 22.2889V7.34961H86.7012V22.2889H84.4326Z" fill="black"/>
<path d="M72.3369 12.3926H74.7244L77.4587 19.0697H77.4785L80.0245 12.3926H82.4021L76.9633 26.3015H74.5758L76.359 21.7346L72.3369 12.3926Z" fill="black"/>
<path d="M64.9961 14.3249V12.3931H66.2047V9.10411L68.4733 8.85645V12.3931H71.3859V14.3249H68.4733V18.9513C68.4733 19.4467 68.5493 19.8 68.7012 20.0114C68.8597 20.2227 69.1008 20.3284 69.4244 20.3284C69.8669 20.3284 70.3556 20.1864 70.8906 19.9024L71.485 21.8639C71.1283 22.0554 70.7651 22.2007 70.3952 22.2998C70.032 22.3989 69.5565 22.4484 68.9687 22.4484C68.0969 22.4484 67.4166 22.171 66.9279 21.6162C66.4458 21.0615 66.2047 20.2425 66.2047 19.1594V14.3249H64.9961Z" fill="black"/>
<path d="M53.4746 20.1883L55.0201 18.2862C55.5286 18.9005 56.1098 19.3727 56.7636 19.7029C57.4241 20.0265 58.0746 20.1883 58.7152 20.1883C59.4946 20.1883 60.089 20.0331 60.4984 19.7227C60.9079 19.4057 61.1127 18.9731 61.1127 18.4249C61.1127 18.2466 61.0895 18.0848 61.0433 17.9395C61.0037 17.7876 60.9508 17.6555 60.8848 17.5432C60.8188 17.4244 60.7197 17.3088 60.5876 17.1965C60.4555 17.0842 60.3234 16.9885 60.1913 16.9092C60.0658 16.83 59.8908 16.7441 59.6663 16.6516C59.4483 16.5526 59.2469 16.4667 59.062 16.3941C58.877 16.3214 58.6327 16.2323 58.3289 16.1266C57.9722 16.0011 57.6618 15.8855 57.3977 15.7799C57.1335 15.6742 56.8396 15.5421 56.516 15.3836C56.1989 15.2251 55.9249 15.0666 55.6937 14.9081C55.4692 14.743 55.2413 14.5514 55.0101 14.3335C54.779 14.1089 54.5941 13.8745 54.4554 13.6301C54.3167 13.3791 54.2011 13.0951 54.1086 12.7781C54.0228 12.4545 53.9798 12.1111 53.9798 11.7478C53.9798 11.0081 54.1846 10.3279 54.5941 9.70706C55.0035 9.08624 55.555 8.60082 56.2485 8.25078C56.9485 7.89414 57.7081 7.71582 58.527 7.71582C58.527 7.71582 58.5369 7.71582 58.5567 7.71582C60.2144 7.71582 61.7962 8.30692 63.302 9.48911L61.8457 11.411C60.6636 10.4269 59.5573 9.93491 58.527 9.93491C57.9524 9.93491 57.4736 10.0868 57.0905 10.3906C56.7141 10.6878 56.5226 11.0973 56.516 11.619C56.516 11.7313 56.5259 11.8403 56.5457 11.946C56.5721 12.045 56.6018 12.1375 56.6348 12.2234C56.6745 12.3026 56.7339 12.3852 56.8132 12.471C56.899 12.5569 56.975 12.6295 57.041 12.689C57.1071 12.7484 57.2094 12.8178 57.3481 12.897C57.4934 12.9763 57.6123 13.0423 57.7048 13.0951C57.7972 13.1414 57.9425 13.2074 58.1407 13.2933C58.3388 13.3725 58.4973 13.4353 58.6162 13.4815C58.7351 13.5277 58.92 13.5971 59.1709 13.6895C59.1842 13.6961 59.1974 13.7028 59.2106 13.7094C59.2634 13.7292 59.3394 13.7589 59.4384 13.7985C59.8809 13.9702 60.2111 14.1023 60.4291 14.1948C60.647 14.2806 60.9343 14.4094 61.291 14.5811C61.6542 14.7529 61.925 14.9081 62.1033 15.0468C62.2882 15.1855 62.4996 15.3671 62.7373 15.5916C62.9751 15.8096 63.1468 16.0341 63.2525 16.2653C63.3648 16.4964 63.4605 16.7738 63.5398 17.0974C63.6256 17.4145 63.6686 17.7612 63.6686 18.1376C63.6686 18.7122 63.5695 19.2406 63.3714 19.7227C63.1732 20.2048 62.9091 20.611 62.5788 20.9412C62.2552 21.2714 61.8755 21.5521 61.4396 21.7833C61.0103 22.0144 60.5645 22.1829 60.1022 22.2885C59.6399 22.3942 59.1742 22.447 58.7053 22.447C57.7543 22.447 56.8297 22.2588 55.9315 21.8824C55.0333 21.5059 54.2143 20.9412 53.4746 20.1883Z" fill="black"/>
<path d="M36.7021 17.3352C36.7021 16.5889 36.8243 15.8987 37.0687 15.2647C37.3131 14.6307 37.6499 14.0924 38.0792 13.6499C38.5085 13.2074 39.0203 12.864 39.6147 12.6196C40.2091 12.3686 40.8464 12.2432 41.5267 12.2432C42.4843 12.2432 43.3297 12.4578 44.0628 12.8871C44.7959 13.3164 45.3573 13.9075 45.7469 14.6604C46.1366 15.4133 46.3314 16.2686 46.3314 17.2262C46.3314 17.5895 46.3116 17.89 46.272 18.1277H39.0599C39.2052 18.8278 39.5289 19.3793 40.0308 19.7821C40.5393 20.185 41.1568 20.3864 41.8833 20.3864C42.907 20.3864 43.7293 19.9968 44.3501 19.2175L45.9352 20.5747C45.4861 21.1493 44.9082 21.605 44.2015 21.9418C43.5014 22.2786 42.6891 22.447 41.7645 22.447C40.8068 22.447 39.9449 22.239 39.1788 21.8229C38.4127 21.4068 37.8084 20.8091 37.3659 20.0298C36.9234 19.2439 36.7021 18.3457 36.7021 17.3352ZM39.0996 16.295H44.0529C43.9076 15.6808 43.6269 15.1954 43.2108 14.8387C42.8014 14.4821 42.2796 14.3038 41.6456 14.3038C41.0182 14.3038 40.4766 14.4788 40.0209 14.8288C39.5652 15.1722 39.2581 15.661 39.0996 16.295Z" fill="black"/>
<path d="M27.4404 21.0007L28.5896 19.2967C28.9925 19.6996 29.4185 19.9968 29.8676 20.1883C30.3233 20.3732 30.8483 20.4657 31.4427 20.4657C31.872 20.4657 32.2088 20.3765 32.4532 20.1982C32.7042 20.0199 32.8297 19.7854 32.8297 19.4948C32.8297 19.2571 32.6877 19.0623 32.4037 18.9104C32.1263 18.7518 31.6144 18.5438 30.8681 18.2862C30.5049 18.1607 30.1879 18.0386 29.9171 17.9197C29.6529 17.8008 29.3821 17.6489 29.1048 17.464C28.834 17.2791 28.6094 17.0809 28.4311 16.8696C28.2594 16.6516 28.1174 16.3875 28.0051 16.077C27.8994 15.7666 27.8466 15.4232 27.8466 15.0468C27.8466 14.241 28.1735 13.574 28.8274 13.0456C29.4878 12.5106 30.3233 12.2432 31.3338 12.2432C32.6414 12.2432 33.8104 12.6559 34.8407 13.4815L33.7014 15.2647C33.3184 14.9081 32.9089 14.6439 32.473 14.4722C32.0437 14.2938 31.6243 14.2047 31.2149 14.2047C30.9507 14.2047 30.703 14.2773 30.4719 14.4226C30.2473 14.5679 30.135 14.7793 30.135 15.0567C30.135 15.2878 30.2638 15.4959 30.5214 15.6808C30.7856 15.8591 31.1818 16.0539 31.7102 16.2653C31.8027 16.3049 31.9414 16.361 32.1263 16.4337C32.4697 16.5658 32.724 16.6648 32.8891 16.7309C33.0542 16.7969 33.2656 16.8927 33.5231 17.0182C33.7873 17.1437 33.9788 17.2526 34.0977 17.3451C34.2232 17.4376 34.3652 17.5597 34.5237 17.7116C34.6888 17.8635 34.8044 18.0188 34.8704 18.1773C34.9431 18.3358 35.0058 18.524 35.0587 18.7419C35.1115 18.9533 35.1379 19.1877 35.1379 19.4453C35.1379 19.868 35.062 20.261 34.9101 20.6242C34.7582 20.9808 34.5336 21.2979 34.2364 21.5752C33.9392 21.846 33.5528 22.0607 33.0773 22.2192C32.6018 22.3711 32.0569 22.447 31.4427 22.447C29.8709 22.447 28.5368 21.9649 27.4404 21.0007Z" fill="black"/>
<path d="M15.2646 17.3847C15.2646 16.6516 15.3868 15.9648 15.6312 15.3241C15.8756 14.6835 16.2091 14.1386 16.6318 13.6895C17.0545 13.2404 17.5597 12.8871 18.1475 12.6295C18.7353 12.372 19.366 12.2432 20.0397 12.2432C21.3275 12.2432 22.3479 12.689 23.1008 13.5806H23.1405V12.3918H25.4091V22.2885H23.2395V20.961H23.2098C22.4569 21.9517 21.4068 22.447 20.0595 22.447C19.3792 22.447 18.7419 22.3282 18.1475 22.0904C17.5597 21.846 17.0545 21.5059 16.6318 21.07C16.2091 20.6341 15.8756 20.0992 15.6312 19.4651C15.3868 18.8311 15.2646 18.1376 15.2646 17.3847ZM17.5729 17.3946C17.5729 18.273 17.8371 18.9929 18.3654 19.5543C18.8938 20.1091 19.5774 20.3864 20.4161 20.3864C21.202 20.3864 21.8658 20.1091 22.4074 19.5543C22.9555 18.9929 23.2296 18.273 23.2296 17.3946C23.2296 16.5162 22.9621 15.7831 22.4272 15.1954C21.8988 14.601 21.2318 14.3038 20.426 14.3038C19.6137 14.3038 18.9334 14.5877 18.3853 15.1557C17.8437 15.7171 17.5729 16.4634 17.5729 17.3946Z" fill="black"/>
<path d="M3 22.2892V7.875H8.01278C9.51859 7.875 10.6744 8.1722 11.4801 8.7666C12.2925 9.3544 12.6986 10.2295 12.6986 11.3919C12.6986 12.0985 12.5203 12.7491 12.1637 13.3435C11.8136 13.9313 11.2886 14.3639 10.5885 14.6413V14.6809C11.4537 14.8988 12.1406 15.3215 12.6491 15.9489C13.1642 16.5764 13.4218 17.3722 13.4218 18.3364C13.4218 18.9176 13.3228 19.4493 13.1246 19.9314C12.9331 20.4069 12.6458 20.823 12.2627 21.1797C11.8797 21.5297 11.3843 21.8038 10.7767 22.0019C10.1691 22.1934 9.47566 22.2892 8.69634 22.2892H3ZM5.44695 20.0899H7.97315C8.85815 20.0833 9.56152 19.9116 10.0833 19.5748C10.605 19.2313 10.8659 18.7294 10.8659 18.069C10.8659 17.4151 10.6215 16.9033 10.1328 16.5334C9.64407 16.157 8.9407 15.9688 8.02268 15.9688H5.44695V20.0899ZM5.44695 13.8487H7.78492C8.10194 13.8487 8.39914 13.8124 8.67652 13.7398C8.96051 13.6671 9.21809 13.5581 9.44924 13.4128C9.6804 13.2609 9.86202 13.0595 9.99411 12.8085C10.1328 12.5576 10.2022 12.267 10.2022 11.9367C10.2088 11.3489 9.99411 10.8899 9.55822 10.5597C9.13553 10.2361 8.47839 10.0743 7.58679 10.0743C7.56698 10.0743 7.55046 10.0743 7.53726 10.0743H5.44695V13.8487Z" fill="black"/>
<path d="M110.038 6.0464C110.038 3.81163 111.908 2 114.215 2H123.822C126.129 2 128 3.81163 128 6.0464V7.46263C128 9.6974 126.129 11.509 123.822 11.509H114.215C111.908 11.509 110.038 9.6974 110.038 7.46263V6.0464Z" fill="#1E293B"/>
<path d="M121.657 8.38386L122.117 7.70228C122.278 7.86343 122.448 7.98231 122.628 8.05892C122.81 8.13289 123.02 8.16987 123.258 8.16987C123.43 8.16987 123.565 8.13421 123.662 8.06288C123.763 7.99155 123.813 7.89777 123.813 7.78153C123.813 7.68643 123.756 7.6085 123.643 7.54774C123.532 7.48433 123.327 7.40112 123.028 7.29809C122.883 7.24789 122.756 7.19902 122.648 7.15147C122.542 7.10392 122.434 7.04316 122.323 6.96919C122.215 6.89522 122.125 6.81596 122.053 6.73143C121.985 6.64425 121.928 6.53858 121.883 6.41441C121.841 6.29025 121.82 6.15288 121.82 6.00229C121.82 5.68 121.95 5.41318 122.212 5.20184C122.476 4.98785 122.81 4.88086 123.215 4.88086C123.738 4.88086 124.205 5.04597 124.617 5.37619L124.162 6.08947C124.008 5.94682 123.845 5.84115 123.67 5.77246C123.499 5.70113 123.331 5.66547 123.167 5.66547C123.061 5.66547 122.962 5.69453 122.87 5.75265C122.78 5.81077 122.735 5.8953 122.735 6.00626C122.735 6.09872 122.787 6.18194 122.89 6.25591C122.995 6.32723 123.154 6.40517 123.365 6.4897C123.402 6.50555 123.458 6.52801 123.532 6.55707C123.669 6.6099 123.771 6.64953 123.837 6.67595C123.903 6.70237 123.987 6.74067 124.09 6.79087C124.196 6.84106 124.273 6.88465 124.32 6.92163C124.37 6.95862 124.427 7.00749 124.491 7.06825C124.557 7.12901 124.603 7.1911 124.629 7.2545C124.658 7.3179 124.683 7.39319 124.705 7.48037C124.726 7.56491 124.736 7.65869 124.736 7.76172C124.736 7.93079 124.706 8.08798 124.645 8.23328C124.584 8.37593 124.494 8.50274 124.376 8.61369C124.257 8.72201 124.102 8.80786 123.912 8.87127C123.722 8.93203 123.504 8.96241 123.258 8.96241C122.629 8.96241 122.096 8.76956 121.657 8.38386Z" fill="white"/>
<path d="M118.012 8.38386L118.471 7.70228C118.633 7.86343 118.803 7.98231 118.983 8.05892C119.165 8.13289 119.375 8.16987 119.613 8.16987C119.784 8.16987 119.919 8.13421 120.017 8.06288C120.117 7.99155 120.167 7.89777 120.167 7.78153C120.167 7.68643 120.111 7.6085 119.997 7.54774C119.886 7.48433 119.681 7.40112 119.383 7.29809C119.238 7.24789 119.111 7.19902 119.002 7.15147C118.897 7.10392 118.788 7.04316 118.677 6.96919C118.569 6.89522 118.479 6.81596 118.408 6.73143C118.339 6.64425 118.283 6.53858 118.238 6.41441C118.195 6.29025 118.174 6.15288 118.174 6.00229C118.174 5.68 118.305 5.41318 118.566 5.20184C118.831 4.98785 119.165 4.88086 119.569 4.88086C120.092 4.88086 120.56 5.04597 120.972 5.37619L120.516 6.08947C120.363 5.94682 120.199 5.84115 120.025 5.77246C119.853 5.70113 119.685 5.66547 119.521 5.66547C119.416 5.66547 119.317 5.69453 119.224 5.75265C119.134 5.81077 119.09 5.8953 119.09 6.00626C119.09 6.09872 119.141 6.18194 119.244 6.25591C119.35 6.32723 119.508 6.40517 119.72 6.4897C119.757 6.50555 119.812 6.52801 119.886 6.55707C120.023 6.6099 120.125 6.64953 120.191 6.67595C120.257 6.70237 120.342 6.74067 120.445 6.79087C120.55 6.84106 120.627 6.88465 120.675 6.92163C120.725 6.95862 120.782 7.00749 120.845 7.06825C120.911 7.12901 120.957 7.1911 120.984 7.2545C121.013 7.3179 121.038 7.39319 121.059 7.48037C121.08 7.56491 121.091 7.65869 121.091 7.76172C121.091 7.93079 121.06 8.08798 121 8.23328C120.939 8.37593 120.849 8.50274 120.73 8.61369C120.611 8.72201 120.457 8.80786 120.266 8.87127C120.076 8.93203 119.858 8.96241 119.613 8.96241C118.984 8.96241 118.45 8.76956 118.012 8.38386Z" fill="white"/>
<path d="M113.795 6.9256C113.795 6.52669 113.882 6.17269 114.056 5.8636C114.231 5.55187 114.473 5.31015 114.782 5.13843C115.093 4.96672 115.447 4.88086 115.844 4.88086C116.163 4.88086 116.472 4.94426 116.771 5.07107C117.069 5.19787 117.315 5.38016 117.508 5.61792L116.89 6.15288C116.771 6.01286 116.627 5.90323 116.458 5.82397C116.289 5.74472 116.1 5.70509 115.891 5.70509C115.54 5.70509 115.256 5.81737 115.039 6.04192C114.825 6.26383 114.718 6.55575 114.718 6.91767C114.718 7.28224 114.827 7.5768 115.043 7.80135C115.262 8.0259 115.546 8.13817 115.895 8.13817C116.104 8.13817 116.294 8.09855 116.466 8.01929C116.64 7.94004 116.784 7.83701 116.898 7.71021L117.524 8.26498C117.342 8.47104 117.101 8.63879 116.803 8.76824C116.507 8.89768 116.176 8.96241 115.812 8.96241C115.426 8.96241 115.08 8.87787 114.774 8.7088C114.467 8.53972 114.227 8.30064 114.052 7.99155C113.881 7.67982 113.795 7.32451 113.795 6.9256Z" fill="white"/>
</svg>
