<svg width="92" height="31" viewBox="0 0 92 31" fill="none" xmlns="http://www.w3.org/2000/svg">
<path fill-rule="evenodd" clip-rule="evenodd" d="M74.9175 19.9759V23.8862H81.9821C83.4295 23.8862 85.914 22.8276 86.0004 19.8679V18.3556C86.0004 15.8279 83.9264 14.3372 81.9821 14.3372H78.4606V12.5224H85.4387V8.59044H78.7414C77.0131 8.59044 74.7014 10.0163 74.7014 12.6736V14.0347C74.7014 16.692 76.9915 18.0531 78.7414 18.0531C83.6024 18.0747 77.5748 18.0531 82.0685 18.0531V19.9543M37.0668 19.0253C37.0668 19.0253 40.8476 18.7012 40.8476 13.8187C40.8476 8.93611 36.2675 8.48242 36.2675 8.48242H28.0146V23.8862H32.1627V20.1703L35.749 23.8862H41.8846L37.0668 19.0253ZM35.4681 15.8711H32.1627V12.3496H35.4897C35.4897 12.3496 36.4187 12.6952 36.4187 14.0995C36.4187 15.5038 35.4681 15.8711 35.4681 15.8711ZM51.088 8.59044H46.8752C43.8722 8.59044 42.8568 11.3126 42.8568 12.6088V23.8862H47.0696V21.1857H51.0232V23.8862H55.1064V12.6088C55.1064 9.32499 52.125 8.59044 51.088 8.59044ZM51.0232 16.8217H47.048V13.0841C47.048 13.0841 47.048 12.2416 48.3658 12.2416H49.8133C50.98 12.2416 51.0016 13.0841 51.0016 13.0841V16.8217H51.0232ZM57.0292 8.59044H61.4148V23.8862H57.0292V8.59044ZM63.208 8.59044V23.8862H73.47V19.9327H67.572V8.59044H63.208Z" fill="#CC0000"/>
<path d="M24 11.4309L23.9883 22.1009C23.9883 22.1708 23.9559 22.2225 23.891 22.2562C22.2245 23.1292 20.5551 24.0085 18.8828 24.8943C18.753 24.9629 18.6164 24.9982 18.473 25C18.45 25.0002 18.4276 24.9928 18.4097 24.9791C18.3918 24.9653 18.3794 24.9461 18.3746 24.9246C18.3461 24.7936 18.3315 24.6726 18.3308 24.5617C18.3081 21.7346 18.2958 18.4527 18.2938 14.7159C18.2938 14.6976 18.2861 14.6801 18.2722 14.6671C18.2583 14.6542 18.2395 14.6469 18.2199 14.6469H13.7334C13.722 14.6469 13.7108 14.6491 13.7003 14.6532C13.6897 14.6573 13.6802 14.6633 13.6721 14.6709C13.6641 14.6785 13.6577 14.6875 13.6534 14.6974C13.649 14.7074 13.6468 14.718 13.6468 14.7287V20.3468C13.6468 20.3788 13.6377 20.4103 13.6204 20.4379C13.6031 20.4655 13.5783 20.4883 13.5485 20.5039L8.32901 23.2514C8.2907 23.2715 8.24608 23.2783 8.20288 23.2706C8.15968 23.2629 8.12062 23.2411 8.09247 23.2091C8.03602 23.1435 8.00779 23.0391 8.00779 22.8958C8.0026 20.0527 8 17.2112 8 14.3713L8.00389 9.89908C8.00389 9.87045 8.01211 9.84231 8.02769 9.81758C8.04327 9.79285 8.06565 9.77244 8.09247 9.75849C9.78686 8.87453 11.4926 7.97647 13.2097 7.06433C13.2882 7.02206 13.3655 7.00062 13.4414 7C13.4847 6.9997 13.5265 7.01515 13.5581 7.04318C13.5898 7.0712 13.609 7.10968 13.6117 7.1507C13.6364 7.53357 13.6494 8.04967 13.6507 8.69902C13.6533 10.7273 13.6559 12.4781 13.6585 13.9514C13.6587 13.9578 13.6606 13.9642 13.6641 13.9698C13.6676 13.9754 13.6725 13.98 13.6784 13.9833C13.6843 13.9865 13.6909 13.9882 13.6977 13.9883C13.7044 13.9883 13.711 13.9867 13.7169 13.9835C16.0933 12.7332 19.3373 11.0223 23.449 8.85063C23.549 8.79795 23.6642 8.78233 23.7946 8.80377C23.8099 8.80636 23.8244 8.81214 23.8372 8.82071C23.85 8.82928 23.8607 8.84044 23.8686 8.85339C23.9445 8.98142 23.9835 9.11435 23.9854 9.25219C23.9945 9.983 23.9994 10.7092 24 11.4309Z" fill="#5582E6"/>
</svg>
