<svg width="126" height="31" viewBox="0 0 126 31" fill="none" xmlns="http://www.w3.org/2000/svg">
<path d="M119.278 22.6232C118.08 22.6232 117.149 22.3027 116.484 21.6618C115.831 21.0088 115.505 20.1019 115.505 18.941V14.9686H113.836V12.6105H113.927C114.979 12.6105 115.505 12.1027 115.505 11.0869V10.3613H118.226V12.6105H120.547V14.9686H118.226V18.7596C118.226 19.7633 118.788 20.2651 119.912 20.2651C120.082 20.2651 120.293 20.247 120.547 20.2107V22.5143C120.366 22.5385 120.16 22.5627 119.931 22.5869C119.701 22.6111 119.483 22.6232 119.278 22.6232Z" fill="black"/>
<path d="M109.055 22.7317C107.966 22.7317 107.017 22.4778 106.207 21.9699C105.409 21.4499 104.864 20.7546 104.574 19.8839L106.569 18.9407C106.823 19.4728 107.168 19.89 107.603 20.1923C108.039 20.4946 108.522 20.6457 109.055 20.6457C109.853 20.6457 110.252 20.3495 110.252 19.7569C110.252 19.3579 109.925 19.0677 109.272 18.8863L107.585 18.4147C106.775 18.1849 106.152 17.8161 105.717 17.3082C105.282 16.7882 105.064 16.1775 105.064 15.4762C105.064 14.8595 105.221 14.3213 105.536 13.8618C105.85 13.4023 106.291 13.0456 106.86 12.7916C107.428 12.5256 108.081 12.3926 108.819 12.3926C109.786 12.3926 110.633 12.6223 111.358 13.0819C112.096 13.5293 112.616 14.1641 112.918 14.9864L110.905 15.9296C110.76 15.5185 110.494 15.192 110.107 14.9502C109.732 14.6962 109.302 14.5692 108.819 14.5692C108.468 14.5692 108.19 14.6418 107.984 14.7869C107.791 14.932 107.694 15.1315 107.694 15.3855C107.694 15.7724 108.051 16.0687 108.764 16.2743L110.342 16.7459C111.165 16.9877 111.793 17.3566 112.229 17.8524C112.664 18.3361 112.882 18.9346 112.882 19.6481C112.882 20.5671 112.531 21.3108 111.83 21.8792C111.128 22.4475 110.203 22.7317 109.055 22.7317Z" fill="black"/>
<path d="M98.1758 22.5126V12.6088H100.715V14.0962C100.969 13.4795 101.326 13.0623 101.785 12.8446C102.257 12.6149 102.795 12.5 103.4 12.5H103.98V14.858H103.128C102.463 14.858 101.924 15.0636 101.513 15.4748C101.102 15.8738 100.897 16.4422 100.897 17.1798V22.5126H98.1758Z" fill="black"/>
<path d="M93.4639 11.7208V9H96.1847V11.7208H93.4639ZM93.4639 22.5134V12.6096H96.1847V22.5134H93.4639Z" fill="black"/>
<path d="M83.0166 22.5134V9H92.2674V11.4487H85.8281V14.877H91.3605V17.3257H85.8281V22.5134H83.0166Z" fill="black"/>
<path d="M69.8379 22.5134V9H72.6494V20.0647H78.3631V22.5134H69.8379Z" fill="black"/>
<path d="M53.293 22.5134V9H56.0138L60.4215 14.8588L64.7204 9H67.4412V22.5134H64.6297V13.8068L60.5485 19.067H60.1857L56.1045 13.6073V22.5134H53.293Z" fill="black"/>
<path d="M45.7153 22.5134V11.4487H42.2871V9H51.9007V11.4487H48.5269V22.5134H45.7153Z" fill="black"/>
<path d="M30 22.5134V9H32.8115V14.8407H38.0718V9H40.8833V22.5134H38.0718V17.2894H32.8115V22.5134H30Z" fill="black"/>
<path d="M23 11.677L22.9883 22.9399C22.9883 23.0136 22.9559 23.0682 22.891 23.1038C21.2245 24.0252 19.5551 24.9534 17.8828 25.8885C17.753 25.9609 17.6164 25.9981 17.473 26C17.45 26.0002 17.4276 25.9924 17.4097 25.9779C17.3918 25.9634 17.3794 25.9431 17.3746 25.9205C17.3461 25.7821 17.3315 25.6544 17.3308 25.5373C17.3081 22.5532 17.2958 19.0889 17.2938 15.1445C17.2938 15.1252 17.2861 15.1067 17.2722 15.0931C17.2583 15.0794 17.2395 15.0718 17.2199 15.0718H12.7334C12.722 15.0718 12.7108 15.074 12.7003 15.0783C12.6897 15.0827 12.6802 15.089 12.6721 15.0971C12.6641 15.1051 12.6577 15.1146 12.6534 15.1251C12.649 15.1355 12.6468 15.1468 12.6468 15.1581V21.0883C12.6468 21.1221 12.6377 21.1553 12.6204 21.1844C12.6031 21.2136 12.5783 21.2377 12.5485 21.2541L7.32901 24.1542C7.2907 24.1755 7.24608 24.1827 7.20288 24.1745C7.15968 24.1664 7.12062 24.1434 7.09247 24.1096C7.03602 24.0404 7.00779 23.9302 7.00779 23.7789C7.0026 20.7779 7 17.7785 7 14.7808L7.00389 10.0601C7.00389 10.0299 7.01211 10.0002 7.02769 9.97411C7.04327 9.94801 7.06565 9.92647 7.09247 9.91174C8.78686 8.97867 10.4926 8.03072 12.2097 7.0679C12.2882 7.02328 12.3655 7.00065 12.4414 7C12.4847 6.99969 12.5265 7.01599 12.5581 7.04558C12.5898 7.07516 12.609 7.11577 12.6117 7.15907C12.6364 7.56321 12.6494 8.10799 12.6507 8.79341C12.6533 10.9344 12.6559 12.7824 12.6585 14.3375C12.6587 14.3444 12.6606 14.3511 12.6641 14.357C12.6676 14.3629 12.6725 14.3678 12.6784 14.3712C12.6843 14.3747 12.6909 14.3765 12.6977 14.3765C12.7044 14.3766 12.711 14.3748 12.7169 14.3715C15.0933 13.0517 18.3373 11.2457 22.449 8.95345C22.549 8.89784 22.6642 8.88135 22.7946 8.90398C22.8099 8.90671 22.8244 8.91281 22.8372 8.92186C22.85 8.93091 22.8607 8.94268 22.8686 8.95636C22.9445 9.0915 22.9835 9.23182 22.9854 9.37731C22.9945 10.1487 22.9994 10.9153 23 11.677Z" fill="#5582E6"/>
</svg>
