<svg width="1255" height="156" viewBox="0 0 1255 156" fill="none" xmlns="http://www.w3.org/2000/svg">
<mask id="mask0_298_2379" style="mask-type:luminance" maskUnits="userSpaceOnUse" x="25" y="17" width="123" height="119">
<path d="M147.25 17H25V135.7H147.25V17Z" fill="white"/>
</mask>
<g mask="url(#mask0_298_2379)">
<path d="M72.1605 17L55.2305 63.76H77.9405L95.0205 17H72.1605Z" fill="#EC4D25"/>
<path d="M140.189 44.2201L90.6094 42.5701L97.6294 64.1701L147.249 65.9601L140.189 44.2201Z" fill="#EC4D25"/>
<path d="M135.63 117.97L121.7 69.6699L103.32 83.0199L117.14 131.41L135.63 117.97Z" fill="#EC4D25"/>
<path d="M64.0293 135.7L105.529 107.61L87.1493 94.26L45.5293 122.26L64.0293 135.7Z" fill="#EC4D25"/>
<path d="M32.06 51.5L25 73.24L64.44 103.96L71.46 82.35L32.06 51.5Z" fill="#EC4D25"/>
</g>
<path d="M177.9 117V51H206C209.667 51 213 51.3 216 51.9C219 52.4333 221.633 53.2667 223.9 54.4C226.233 55.4667 228.2 56.8 229.8 58.4C231.4 59.9333 232.6 61.7333 233.4 63.8C234.2 65.8 234.6 68.0333 234.6 70.5C234.6 72.8333 234.233 74.9333 233.5 76.8C232.767 78.6667 231.633 80.3 230.1 81.7C228.633 83.1 226.767 84.2333 224.5 85.1C222.233 85.9667 219.6 86.6 216.6 87V88.5C220.4 88.9 223.333 89.7667 225.4 91.1C227.533 92.3667 229.167 94.0667 230.3 96.2C231.433 98.3333 232.433 100.9 233.3 103.9L237.1 117H219.2L216.3 104.9C215.7 102.233 214.867 100.167 213.8 98.7C212.8 97.2333 211.5 96.2333 209.9 95.7C208.3 95.1 206.3 94.8 203.9 94.8H194V117H177.9ZM194 82.9H204.9C208.967 82.9 212.133 82.1 214.4 80.5C216.667 78.9 217.8 76.4 217.8 73C217.8 69.6667 216.767 67.2 214.7 65.6C212.633 64 209.5 63.2 205.3 63.2H194V82.9ZM271.05 118.4C266.65 118.4 262.717 117.833 259.25 116.7C255.783 115.5 252.817 113.767 250.35 111.5C247.95 109.233 246.117 106.433 244.85 103.1C243.583 99.7667 242.95 95.9333 242.95 91.6C242.95 87.4 243.55 83.5333 244.75 80C246.017 76.4667 247.783 73.4333 250.05 70.9C252.383 68.3 255.217 66.3 258.55 64.9C261.95 63.5 265.75 62.8 269.95 62.8C274.217 62.8 277.95 63.5 281.15 64.9C284.417 66.2333 287.083 68.2333 289.15 70.9C291.283 73.5667 292.85 76.8333 293.85 80.7C294.85 84.5 295.183 88.8667 294.85 93.8L253.55 94.1V85.7L285.65 85.4L279.95 89.3C280.417 85.9667 280.217 83.2667 279.35 81.2C278.483 79.0667 277.217 77.5333 275.55 76.6C273.883 75.6 272.083 75.1 270.15 75.1C267.817 75.1 265.75 75.7333 263.95 77C262.217 78.2667 260.85 80.1 259.85 82.5C258.85 84.9 258.35 87.8333 258.35 91.3C258.35 96.7667 259.517 100.733 261.85 103.2C264.25 105.667 267.283 106.9 270.95 106.9C272.75 106.9 274.25 106.667 275.45 106.2C276.65 105.667 277.617 105.033 278.35 104.3C279.15 103.5 279.75 102.633 280.15 101.7C280.617 100.767 280.983 99.8667 281.25 99L295.25 102C294.717 104.467 293.85 106.7 292.65 108.7C291.517 110.7 289.95 112.433 287.95 113.9C286.017 115.367 283.65 116.467 280.85 117.2C278.117 118 274.85 118.4 271.05 118.4ZM317.041 118.4C314.108 118.4 311.508 117.833 309.241 116.7C306.975 115.5 305.208 113.8 303.941 111.6C302.675 109.333 302.041 106.6 302.041 103.4C302.041 100.4 302.608 97.9333 303.741 96C304.941 94 306.641 92.4333 308.841 91.3C311.108 90.1 313.808 89.1333 316.941 88.4C320.075 87.6 323.641 86.9 327.641 86.3C329.575 85.9667 331.175 85.6667 332.441 85.4C333.775 85.0667 334.775 84.5667 335.441 83.9C336.108 83.2333 336.441 82.2667 336.441 81C336.441 79.3333 335.841 77.9 334.641 76.7C333.441 75.5 331.508 74.9 328.841 74.9C326.975 74.9 325.275 75.2333 323.741 75.9C322.275 76.5667 321.008 77.5333 319.941 78.8C318.875 80.0667 318.075 81.6 317.541 83.4L303.341 79.2C304.208 76.4 305.408 73.9667 306.941 71.9C308.541 69.8333 310.441 68.1333 312.641 66.8C314.841 65.4 317.341 64.4 320.141 63.8C323.008 63.1333 326.041 62.8 329.241 62.8C334.575 62.8 338.908 63.6667 342.241 65.4C345.641 67.0667 348.141 69.7 349.741 73.3C351.408 76.8333 352.241 81.4 352.241 87V95.1C352.241 97.5 352.275 99.9333 352.341 102.4C352.475 104.8 352.608 107.233 352.741 109.7C352.941 112.1 353.175 114.533 353.441 117H339.241C338.975 115.467 338.708 113.633 338.441 111.5C338.175 109.3 337.975 107.067 337.841 104.8H335.941C335.008 107.333 333.641 109.667 331.841 111.8C330.108 113.867 327.975 115.5 325.441 116.7C322.975 117.833 320.175 118.4 317.041 118.4ZM324.341 107C325.541 107 326.741 106.8 327.941 106.4C329.208 105.933 330.408 105.333 331.541 104.6C332.675 103.8 333.708 102.833 334.641 101.7C335.575 100.567 336.275 99.3333 336.741 98L336.541 90.1L338.741 90.6C337.475 91.4 336.075 92.0333 334.541 92.5C333.008 92.9667 331.441 93.3333 329.841 93.6C328.308 93.8667 326.775 94.1667 325.241 94.5C323.775 94.7667 322.441 95.1333 321.241 95.6C320.108 96.0667 319.208 96.7 318.541 97.5C317.875 98.3 317.541 99.4 317.541 100.8C317.541 102.667 318.175 104.167 319.441 105.3C320.708 106.433 322.341 107 324.341 107ZM364.114 117V45H379.914V117H364.114ZM392.434 117V45H408.234V117H392.434ZM440.859 135.4C438.193 135.4 435.459 135.167 432.659 134.7C429.859 134.233 427.193 133.533 424.659 132.6C422.193 131.733 420.059 130.567 418.259 129.1L422.159 114.8C424.493 117 427.293 118.633 430.559 119.7C433.893 120.767 437.093 121.3 440.159 121.3C443.693 121.3 446.593 120.6 448.859 119.2C451.193 117.867 452.959 115.8 454.159 113C455.426 110.133 456.159 106.6 456.359 102.4L456.859 93.7H454.459C453.859 98.0333 452.793 101.567 451.259 104.3C449.793 107.033 447.893 109.067 445.559 110.4C443.293 111.667 440.593 112.3 437.459 112.3C433.593 112.3 430.359 111.333 427.759 109.4C425.159 107.467 423.193 104.567 421.859 100.7C420.593 96.7667 419.959 91.9 419.959 86.1V64.2H436.159V82.1C436.159 88.2333 436.759 92.6333 437.959 95.3C439.226 97.9 441.193 99.2 443.859 99.2C445.259 99.2 446.526 98.8 447.659 98C448.793 97.2 449.759 96.0667 450.559 94.6C451.359 93.1333 451.959 91.3667 452.359 89.3C452.826 87.1667 453.059 84.8 453.059 82.2V64.2H469.159V103C469.159 107.2 468.759 111.033 467.959 114.5C467.226 117.967 466.093 121 464.559 123.6C463.093 126.2 461.226 128.367 458.959 130.1C456.693 131.9 454.059 133.233 451.059 134.1C448.059 134.967 444.659 135.4 440.859 135.4ZM530.565 118.4C525.165 118.4 520.298 117.167 515.965 114.7C511.632 112.233 508.198 108.533 505.665 103.6C503.198 98.6 501.965 92.3333 501.965 84.8C501.965 79.2667 502.665 74.3333 504.065 70C505.532 65.6667 507.698 62 510.565 59C513.432 55.9333 516.932 53.6 521.065 52C525.265 50.4 530.098 49.6 535.565 49.6C539.698 49.6 543.432 50.0667 546.765 51C550.165 51.9333 553.098 53.2667 555.565 55C558.032 56.7333 559.932 58.8 561.265 61.2C562.665 63.6 563.398 66.3 563.465 69.3L548.265 74C548.198 71.5333 547.565 69.4667 546.365 67.8C545.165 66.1333 543.565 64.8667 541.565 64C539.565 63.0667 537.332 62.6 534.865 62.6C531.398 62.6 528.465 63.4 526.065 65C523.732 66.5333 521.932 68.9 520.665 72.1C519.465 75.3 518.865 79.3 518.865 84.1C518.865 87.7 519.198 90.8667 519.865 93.6C520.598 96.2667 521.665 98.5 523.065 100.3C524.465 102.1 526.165 103.467 528.165 104.4C530.232 105.267 532.665 105.7 535.465 105.7C538.265 105.7 540.665 105.267 542.665 104.4C544.732 103.533 546.365 102.2 547.565 100.4C548.765 98.6 549.398 96.3 549.465 93.5H537.765V82.1H565.465V94.9V117H554.465L554.265 100.5H552.265C551.132 104.367 549.665 107.633 547.865 110.3C546.065 112.967 543.765 115 540.965 116.4C538.165 117.733 534.698 118.4 530.565 118.4ZM600.816 118.4C595.483 118.4 590.75 117.367 586.616 115.3C582.55 113.233 579.35 110.133 577.016 106C574.683 101.867 573.516 96.7 573.516 90.5C573.516 84.3 574.683 79.1667 577.016 75.1C579.35 70.9667 582.583 67.9 586.716 65.9C590.85 63.8333 595.583 62.8 600.916 62.8C606.25 62.8 610.983 63.8333 615.116 65.9C619.25 67.9667 622.483 71.0667 624.816 75.2C627.15 79.2667 628.316 84.4 628.316 90.6C628.316 96.9333 627.116 102.167 624.716 106.3C622.316 110.433 619.016 113.5 614.816 115.5C610.683 117.433 606.016 118.4 600.816 118.4ZM601.316 106.7C603.716 106.7 605.716 106.167 607.316 105.1C608.916 103.967 610.116 102.267 610.916 100C611.716 97.7333 612.116 94.9333 612.116 91.6C612.116 88.0667 611.683 85.1 610.816 82.7C609.95 80.2333 608.65 78.3667 606.916 77.1C605.25 75.7667 603.083 75.1 600.416 75.1C598.15 75.1 596.183 75.6667 594.516 76.8C592.916 77.8667 591.716 79.5333 590.916 81.8C590.116 84.0667 589.716 86.9 589.716 90.3C589.716 95.7667 590.716 99.8667 592.716 102.6C594.783 105.333 597.65 106.7 601.316 106.7ZM662.047 118.4C656.714 118.4 651.98 117.367 647.847 115.3C643.78 113.233 640.58 110.133 638.247 106C635.914 101.867 634.747 96.7 634.747 90.5C634.747 84.3 635.914 79.1667 638.247 75.1C640.58 70.9667 643.814 67.9 647.947 65.9C652.08 63.8333 656.814 62.8 662.147 62.8C667.48 62.8 672.214 63.8333 676.347 65.9C680.48 67.9667 683.714 71.0667 686.047 75.2C688.38 79.2667 689.547 84.4 689.547 90.6C689.547 96.9333 688.347 102.167 685.947 106.3C683.547 110.433 680.247 113.5 676.047 115.5C671.914 117.433 667.247 118.4 662.047 118.4ZM662.547 106.7C664.947 106.7 666.947 106.167 668.547 105.1C670.147 103.967 671.347 102.267 672.147 100C672.947 97.7333 673.347 94.9333 673.347 91.6C673.347 88.0667 672.914 85.1 672.047 82.7C671.18 80.2333 669.88 78.3667 668.147 77.1C666.48 75.7667 664.314 75.1 661.647 75.1C659.38 75.1 657.414 75.6667 655.747 76.8C654.147 77.8667 652.947 79.5333 652.147 81.8C651.347 84.0667 650.947 86.9 650.947 90.3C650.947 95.7667 651.947 99.8667 653.947 102.6C656.014 105.333 658.88 106.7 662.547 106.7ZM718.277 118.4C713.877 118.4 710.011 117.3 706.677 115.1C703.411 112.833 700.844 109.633 698.977 105.5C697.111 101.3 696.177 96.3 696.177 90.5C696.177 85.1667 696.977 80.4333 698.577 76.3C700.177 72.1667 702.544 68.9333 705.677 66.6C708.877 64.2 712.811 63 717.477 63C720.811 63 723.611 63.6 725.877 64.8C728.211 66 730.144 67.8 731.677 70.2C733.211 72.6 734.444 75.6333 735.377 79.3H737.877C737.411 77.0333 736.977 74.9 736.577 72.9C736.177 70.8333 735.844 68.9333 735.577 67.2C735.377 65.4 735.277 63.8333 735.277 62.5V45H751.477V91.2V117H738.277L738.077 101.4H735.877C735.144 105.4 733.977 108.667 732.377 111.2C730.844 113.667 728.877 115.5 726.477 116.7C724.144 117.833 721.411 118.4 718.277 118.4ZM724.077 105.4C726.144 105.4 727.877 104.967 729.277 104.1C730.744 103.167 731.911 102 732.777 100.6C733.644 99.2 734.277 97.7 734.677 96.1C735.077 94.5 735.277 93 735.277 91.6V89.5C735.277 88.2333 735.111 86.9667 734.777 85.7C734.444 84.4333 733.944 83.2 733.277 82C732.677 80.8 731.911 79.7333 730.977 78.8C730.044 77.8667 728.944 77.1333 727.677 76.6C726.477 76.0667 725.144 75.8 723.677 75.8C721.477 75.8 719.577 76.4 717.977 77.6C716.444 78.8 715.244 80.5 714.377 82.7C713.577 84.9 713.177 87.5 713.177 90.5C713.177 93.5 713.611 96.1333 714.477 98.4C715.344 100.6 716.611 102.333 718.277 103.6C719.944 104.8 721.877 105.4 724.077 105.4ZM813.084 118.4C808.818 118.4 804.951 118 801.484 117.2C798.018 116.4 795.018 115.2 792.484 113.6C789.951 111.933 787.951 109.833 786.484 107.3C785.018 104.767 784.151 101.833 783.884 98.5L797.984 93.8C798.184 96.6 798.984 98.9333 800.384 100.8C801.784 102.667 803.651 104.067 805.984 105C808.384 105.867 811.051 106.3 813.984 106.3C816.784 106.3 819.118 105.967 820.984 105.3C822.918 104.567 824.351 103.667 825.284 102.6C826.284 101.467 826.784 100.267 826.784 99C826.784 97.5333 826.151 96.3333 824.884 95.4C823.618 94.4 821.884 93.5667 819.684 92.9C817.484 92.1667 814.918 91.4667 811.984 90.8C808.651 90 805.384 89.1333 802.184 88.2C798.984 87.2667 796.084 86.0667 793.484 84.6C790.884 83.0667 788.818 81.1333 787.284 78.8C785.818 76.4 785.084 73.4 785.084 69.8C785.084 65.7333 786.118 62.2 788.184 59.2C790.251 56.2 793.284 53.8667 797.284 52.2C801.284 50.4667 806.218 49.6 812.084 49.6C817.884 49.6 822.818 50.4333 826.884 52.1C830.951 53.7667 834.084 56.1 836.284 59.1C838.484 62.0333 839.684 65.4667 839.884 69.4L825.484 73.5C825.484 71.5667 825.151 69.8667 824.484 68.4C823.884 66.9333 823.018 65.7333 821.884 64.8C820.751 63.8 819.351 63.0667 817.684 62.6C816.018 62.0667 814.118 61.8 811.984 61.8C809.451 61.8 807.284 62.1 805.484 62.7C803.751 63.3 802.451 64.1 801.584 65.1C800.718 66.0333 800.284 67.1333 800.284 68.4C800.284 70 800.951 71.3333 802.284 72.4C803.684 73.4 805.551 74.2667 807.884 75C810.284 75.6667 812.918 76.3333 815.784 77C818.651 77.6 821.618 78.3667 824.684 79.3C827.751 80.1667 830.618 81.3333 833.284 82.8C835.951 84.2667 838.084 86.2667 839.684 88.8C841.351 91.2667 842.184 94.4 842.184 98.2C842.184 102.267 841.084 105.833 838.884 108.9C836.751 111.9 833.518 114.233 829.184 115.9C824.851 117.567 819.484 118.4 813.084 118.4ZM876.305 118.4C870.971 118.4 866.238 117.367 862.105 115.3C858.038 113.233 854.838 110.133 852.505 106C850.171 101.867 849.005 96.7 849.005 90.5C849.005 84.3 850.171 79.1667 852.505 75.1C854.838 70.9667 858.071 67.9 862.205 65.9C866.338 63.8333 871.071 62.8 876.405 62.8C881.738 62.8 886.471 63.8333 890.605 65.9C894.738 67.9667 897.971 71.0667 900.305 75.2C902.638 79.2667 903.805 84.4 903.805 90.6C903.805 96.9333 902.605 102.167 900.205 106.3C897.805 110.433 894.505 113.5 890.305 115.5C886.171 117.433 881.505 118.4 876.305 118.4ZM876.805 106.7C879.205 106.7 881.205 106.167 882.805 105.1C884.405 103.967 885.605 102.267 886.405 100C887.205 97.7333 887.605 94.9333 887.605 91.6C887.605 88.0667 887.171 85.1 886.305 82.7C885.438 80.2333 884.138 78.3667 882.405 77.1C880.738 75.7667 878.571 75.1 875.905 75.1C873.638 75.1 871.671 75.6667 870.005 76.8C868.405 77.8667 867.205 79.5333 866.405 81.8C865.605 84.0667 865.205 86.9 865.205 90.3C865.205 95.7667 866.205 99.8667 868.205 102.6C870.271 105.333 873.138 106.7 876.805 106.7ZM917.235 117V84.3H909.135V72.6L923.535 73.2V71.3C921.002 70.8333 918.902 70 917.235 68.8C915.635 67.5333 914.468 66.0667 913.735 64.4C913.002 62.7333 912.635 60.9333 912.635 59C912.635 56.0667 913.402 53.5667 914.935 51.5C916.468 49.3667 918.635 47.7333 921.435 46.6C924.235 45.4667 927.502 44.9 931.235 44.9C934.502 44.9 937.468 45.3 940.135 46.1C942.802 46.8333 944.935 47.7667 946.535 48.9L945.635 63.4C943.968 62.2667 942.068 61.3333 939.935 60.6C937.868 59.8667 935.935 59.5 934.135 59.5C932.268 59.5 930.702 60 929.435 61C928.168 61.9333 927.535 63.5 927.535 65.7C927.535 67.4333 927.902 68.7333 928.635 69.6C929.435 70.4667 930.402 71.0667 931.535 71.4C932.668 71.6667 933.802 71.8 934.935 71.8H946.535V84.3H932.935V117H917.235ZM975.925 118.3C969.725 118.3 965.158 116.667 962.225 113.4C959.292 110.067 957.825 104.767 957.825 97.5V76.8H950.325L950.625 64.3H956.025C958.158 64.2333 959.758 63.9 960.825 63.3C961.958 62.7 962.658 61.5667 962.925 59.9L964.225 52.5H973.325V64.2H986.025V77.3H973.325V96.8C973.325 99.0667 973.858 100.733 974.925 101.8C976.058 102.867 977.758 103.4 980.025 103.4C981.292 103.4 982.492 103.267 983.625 103C984.758 102.733 985.692 102.367 986.425 101.9V116.8C984.292 117.467 982.325 117.867 980.525 118C978.792 118.2 977.258 118.3 975.925 118.3ZM1004.43 117L991.634 64.2H1008.43L1014.93 104.4H1016.93L1025.03 64.2H1044.13L1052.53 104.4H1054.63L1060.83 64.2H1077.33L1064.53 117H1042.33L1035.03 77.2H1033.13L1026.33 117H1004.43ZM1096.34 118.4C1093.4 118.4 1090.8 117.833 1088.54 116.7C1086.27 115.5 1084.5 113.8 1083.24 111.6C1081.97 109.333 1081.34 106.6 1081.34 103.4C1081.34 100.4 1081.9 97.9333 1083.04 96C1084.24 94 1085.94 92.4333 1088.14 91.3C1090.4 90.1 1093.1 89.1333 1096.24 88.4C1099.37 87.6 1102.94 86.9 1106.94 86.3C1108.87 85.9667 1110.47 85.6667 1111.74 85.4C1113.07 85.0667 1114.07 84.5667 1114.74 83.9C1115.4 83.2333 1115.74 82.2667 1115.74 81C1115.74 79.3333 1115.14 77.9 1113.94 76.7C1112.74 75.5 1110.8 74.9 1108.14 74.9C1106.27 74.9 1104.57 75.2333 1103.04 75.9C1101.57 76.5667 1100.3 77.5333 1099.24 78.8C1098.17 80.0667 1097.37 81.6 1096.84 83.4L1082.64 79.2C1083.5 76.4 1084.7 73.9667 1086.24 71.9C1087.84 69.8333 1089.74 68.1333 1091.94 66.8C1094.14 65.4 1096.64 64.4 1099.44 63.8C1102.3 63.1333 1105.34 62.8 1108.54 62.8C1113.87 62.8 1118.2 63.6667 1121.54 65.4C1124.94 67.0667 1127.44 69.7 1129.04 73.3C1130.7 76.8333 1131.54 81.4 1131.54 87V95.1C1131.54 97.5 1131.57 99.9333 1131.64 102.4C1131.77 104.8 1131.9 107.233 1132.04 109.7C1132.24 112.1 1132.47 114.533 1132.74 117H1118.54C1118.27 115.467 1118 113.633 1117.74 111.5C1117.47 109.3 1117.27 107.067 1117.14 104.8H1115.24C1114.3 107.333 1112.94 109.667 1111.14 111.8C1109.4 113.867 1107.27 115.5 1104.74 116.7C1102.27 117.833 1099.47 118.4 1096.34 118.4ZM1103.64 107C1104.84 107 1106.04 106.8 1107.24 106.4C1108.5 105.933 1109.7 105.333 1110.84 104.6C1111.97 103.8 1113 102.833 1113.94 101.7C1114.87 100.567 1115.57 99.3333 1116.04 98L1115.84 90.1L1118.04 90.6C1116.77 91.4 1115.37 92.0333 1113.84 92.5C1112.3 92.9667 1110.74 93.3333 1109.14 93.6C1107.6 93.8667 1106.07 94.1667 1104.54 94.5C1103.07 94.7667 1101.74 95.1333 1100.54 95.6C1099.4 96.0667 1098.5 96.7 1097.84 97.5C1097.17 98.3 1096.84 99.4 1096.84 100.8C1096.84 102.667 1097.47 104.167 1098.74 105.3C1100 106.433 1101.64 107 1103.64 107ZM1143.41 117V92.5V64.2H1156.61L1156.91 82.1H1158.91C1159.38 77.4333 1160.24 73.7333 1161.51 71C1162.84 68.2 1164.71 66.1667 1167.11 64.9C1169.58 63.6333 1172.61 63 1176.21 63C1176.74 63 1177.34 63.0333 1178.01 63.1C1178.68 63.1 1179.44 63.1667 1180.31 63.3L1179.71 80.5C1178.64 79.9667 1177.48 79.6333 1176.21 79.5C1175.01 79.3 1173.94 79.2 1173.01 79.2C1170.41 79.2 1168.14 79.7 1166.21 80.7C1164.34 81.7 1162.84 83.2333 1161.71 85.3C1160.64 87.3667 1159.94 89.9667 1159.61 93.1V117H1143.41ZM1213.14 118.4C1208.74 118.4 1204.81 117.833 1201.34 116.7C1197.87 115.5 1194.91 113.767 1192.44 111.5C1190.04 109.233 1188.21 106.433 1186.94 103.1C1185.67 99.7667 1185.04 95.9333 1185.04 91.6C1185.04 87.4 1185.64 83.5333 1186.84 80C1188.11 76.4667 1189.87 73.4333 1192.14 70.9C1194.47 68.3 1197.31 66.3 1200.64 64.9C1204.04 63.5 1207.84 62.8 1212.04 62.8C1216.31 62.8 1220.04 63.5 1223.24 64.9C1226.51 66.2333 1229.17 68.2333 1231.24 70.9C1233.37 73.5667 1234.94 76.8333 1235.94 80.7C1236.94 84.5 1237.27 88.8667 1236.94 93.8L1195.64 94.1V85.7L1227.74 85.4L1222.04 89.3C1222.51 85.9667 1222.31 83.2667 1221.44 81.2C1220.57 79.0667 1219.31 77.5333 1217.64 76.6C1215.97 75.6 1214.17 75.1 1212.24 75.1C1209.91 75.1 1207.84 75.7333 1206.04 77C1204.31 78.2667 1202.94 80.1 1201.94 82.5C1200.94 84.9 1200.44 87.8333 1200.44 91.3C1200.44 96.7667 1201.61 100.733 1203.94 103.2C1206.34 105.667 1209.37 106.9 1213.04 106.9C1214.84 106.9 1216.34 106.667 1217.54 106.2C1218.74 105.667 1219.71 105.033 1220.44 104.3C1221.24 103.5 1221.84 102.633 1222.24 101.7C1222.71 100.767 1223.07 99.8667 1223.34 99L1237.34 102C1236.81 104.467 1235.94 106.7 1234.74 108.7C1233.61 110.7 1232.04 112.433 1230.04 113.9C1228.11 115.367 1225.74 116.467 1222.94 117.2C1220.21 118 1216.94 118.4 1213.14 118.4Z" fill="#EC4D25"/>
</svg>
